<svg width="393" height="184" viewBox="0 0 393 184" fill="none" xmlns="http://www.w3.org/2000/svg">
<rect y="-19.4583" width="393" height="203.458" fill="#0D1C2E"/>
<path d="M372.868 -19C372.868 7.65834 363.235 34.0556 344.519 58.6847C325.802 83.3138 298.369 105.692 263.785 124.543C229.201 143.393 188.144 158.346 142.959 168.548C97.7728 178.749 49.343 184 0.434218 184L0.434235 -19H372.868Z" fill="#152534"/>
<path d="M248.053 -19.34C248.053 0.7542 241.648 20.6517 229.204 39.2163C216.76 57.781 198.52 74.6492 175.527 88.858C152.533 103.067 125.236 114.338 95.1937 122.027C65.1512 129.717 32.9519 133.675 0.434209 133.675L0.434219 -19.34H248.053Z" fill="#1E2E3D"/>
<path d="M39.9375 121.855L46.7109 98.0425H49.9922L48.0938 107.3L40.8047 132.167H37.5469L39.9375 121.855ZM32.9297 98.0425L38.3203 121.386L39.9375 132.167H36.7031L28.4297 98.0425H32.9297ZM58.7578 121.363L64.0312 98.0425H68.5547L60.3047 132.167H57.0703L58.7578 121.363ZM50.4844 98.0425L57.0703 121.855L59.4609 132.167H56.2031L49.1719 107.3L47.25 98.0425H50.4844ZM79.8075 132.636C78.0419 132.636 76.4403 132.339 75.0028 131.746C73.5809 131.136 72.3544 130.285 71.3231 129.191C70.3075 128.097 69.5262 126.8 68.9794 125.3C68.4325 123.8 68.1591 122.16 68.1591 120.378V119.394C68.1591 117.332 68.4637 115.496 69.0731 113.886C69.6825 112.261 70.5106 110.886 71.5575 109.761C72.6044 108.636 73.7919 107.785 75.12 107.207C76.4481 106.628 77.8231 106.339 79.245 106.339C81.0575 106.339 82.62 106.652 83.9325 107.277C85.2606 107.902 86.3466 108.777 87.1903 109.902C88.0341 111.011 88.6591 112.324 89.0653 113.839C89.4716 115.339 89.6747 116.98 89.6747 118.761V120.707H70.7372V117.167H85.3387V116.839C85.2762 115.714 85.0419 114.621 84.6356 113.558C84.245 112.496 83.62 111.621 82.7606 110.933C81.9012 110.246 80.7294 109.902 79.245 109.902C78.2606 109.902 77.3544 110.113 76.5262 110.535C75.6981 110.941 74.9872 111.55 74.3934 112.363C73.7997 113.175 73.3387 114.167 73.0106 115.339C72.6825 116.511 72.5184 117.863 72.5184 119.394V120.378C72.5184 121.582 72.6825 122.714 73.0106 123.777C73.3544 124.824 73.8466 125.746 74.4872 126.542C75.1434 127.339 75.9325 127.964 76.8544 128.417C77.7919 128.871 78.8544 129.097 80.0419 129.097C81.5731 129.097 82.87 128.785 83.9325 128.16C84.995 127.535 85.9247 126.699 86.7216 125.652L89.3466 127.738C88.7997 128.566 88.1044 129.355 87.2606 130.105C86.4169 130.855 85.3778 131.464 84.1434 131.933C82.9247 132.402 81.4794 132.636 79.8075 132.636ZM96.5681 96.1675V132.167H92.2087V96.1675H96.5681ZM110.798 129.074C111.829 129.074 112.782 128.863 113.657 128.441C114.532 128.019 115.251 127.441 115.813 126.707C116.376 125.957 116.696 125.105 116.774 124.152H120.899C120.821 125.652 120.313 127.05 119.376 128.347C118.454 129.628 117.243 130.667 115.743 131.464C114.243 132.246 112.594 132.636 110.798 132.636C108.891 132.636 107.227 132.3 105.805 131.628C104.399 130.957 103.227 130.035 102.29 128.863C101.368 127.691 100.673 126.347 100.204 124.832C99.7506 123.3 99.5241 121.683 99.5241 119.98V118.996C99.5241 117.292 99.7506 115.683 100.204 114.167C100.673 112.636 101.368 111.285 102.29 110.113C103.227 108.941 104.399 108.019 105.805 107.347C107.227 106.675 108.891 106.339 110.798 106.339C112.782 106.339 114.516 106.746 116.001 107.558C117.485 108.355 118.649 109.449 119.493 110.839C120.352 112.214 120.821 113.777 120.899 115.527H116.774C116.696 114.48 116.399 113.535 115.883 112.691C115.383 111.847 114.696 111.175 113.821 110.675C112.962 110.16 111.954 109.902 110.798 109.902C109.469 109.902 108.352 110.167 107.446 110.699C106.555 111.214 105.844 111.917 105.313 112.808C104.798 113.683 104.423 114.66 104.188 115.738C103.969 116.8 103.86 117.886 103.86 118.996V119.98C103.86 121.089 103.969 122.183 104.188 123.261C104.407 124.339 104.774 125.316 105.29 126.191C105.821 127.066 106.532 127.769 107.423 128.3C108.329 128.816 109.454 129.074 110.798 129.074ZM121.746 119.769V119.23C121.746 117.402 122.011 115.707 122.542 114.144C123.074 112.566 123.839 111.199 124.839 110.042C125.839 108.871 127.05 107.964 128.472 107.324C129.894 106.667 131.488 106.339 133.253 106.339C135.035 106.339 136.636 106.667 138.058 107.324C139.496 107.964 140.714 108.871 141.714 110.042C142.73 111.199 143.503 112.566 144.035 114.144C144.566 115.707 144.832 117.402 144.832 119.23V119.769C144.832 121.597 144.566 123.292 144.035 124.855C143.503 126.417 142.73 127.785 141.714 128.957C140.714 130.113 139.503 131.019 138.082 131.675C136.675 132.316 135.082 132.636 133.3 132.636C131.519 132.636 129.917 132.316 128.496 131.675C127.074 131.019 125.855 130.113 124.839 128.957C123.839 127.785 123.074 126.417 122.542 124.855C122.011 123.292 121.746 121.597 121.746 119.769ZM126.082 119.23V119.769C126.082 121.035 126.23 122.23 126.527 123.355C126.824 124.464 127.269 125.449 127.863 126.308C128.472 127.167 129.23 127.847 130.136 128.347C131.042 128.832 132.097 129.074 133.3 129.074C134.488 129.074 135.527 128.832 136.417 128.347C137.324 127.847 138.074 127.167 138.667 126.308C139.261 125.449 139.707 124.464 140.003 123.355C140.316 122.23 140.472 121.035 140.472 119.769V119.23C140.472 117.98 140.316 116.8 140.003 115.691C139.707 114.566 139.253 113.574 138.644 112.714C138.05 111.839 137.3 111.152 136.394 110.652C135.503 110.152 134.457 109.902 133.253 109.902C132.066 109.902 131.019 110.152 130.113 110.652C129.222 111.152 128.472 111.839 127.863 112.714C127.269 113.574 126.824 114.566 126.527 115.691C126.23 116.8 126.082 117.98 126.082 119.23ZM151.702 111.847V132.167H147.342V106.808H151.467L151.702 111.847ZM150.811 118.527L148.795 118.457C148.811 116.722 149.037 115.121 149.475 113.652C149.912 112.167 150.561 110.878 151.42 109.785C152.28 108.691 153.35 107.847 154.631 107.253C155.912 106.644 157.397 106.339 159.084 106.339C160.272 106.339 161.366 106.511 162.366 106.855C163.366 107.183 164.233 107.707 164.967 108.425C165.702 109.144 166.272 110.066 166.678 111.191C167.084 112.316 167.287 113.675 167.287 115.269V132.167H162.952V115.48C162.952 114.152 162.725 113.089 162.272 112.292C161.834 111.496 161.209 110.917 160.397 110.558C159.584 110.183 158.631 109.996 157.537 109.996C156.256 109.996 155.186 110.222 154.327 110.675C153.467 111.128 152.78 111.753 152.264 112.55C151.748 113.347 151.373 114.261 151.139 115.292C150.92 116.308 150.811 117.386 150.811 118.527ZM167.241 116.136L164.334 117.027C164.35 115.636 164.577 114.3 165.014 113.019C165.467 111.738 166.116 110.597 166.959 109.597C167.819 108.597 168.873 107.808 170.123 107.23C171.373 106.636 172.803 106.339 174.412 106.339C175.772 106.339 176.975 106.519 178.022 106.878C179.084 107.238 179.975 107.792 180.694 108.542C181.428 109.277 181.983 110.222 182.358 111.378C182.733 112.535 182.92 113.91 182.92 115.503V132.167H178.561V115.457C178.561 114.035 178.334 112.933 177.881 112.152C177.444 111.355 176.819 110.8 176.006 110.488C175.209 110.16 174.256 109.996 173.147 109.996C172.194 109.996 171.35 110.16 170.616 110.488C169.881 110.816 169.264 111.269 168.764 111.847C168.264 112.41 167.881 113.058 167.616 113.792C167.366 114.527 167.241 115.308 167.241 116.136ZM197.126 132.636C195.361 132.636 193.759 132.339 192.322 131.746C190.9 131.136 189.673 130.285 188.642 129.191C187.626 128.097 186.845 126.8 186.298 125.3C185.751 123.8 185.478 122.16 185.478 120.378V119.394C185.478 117.332 185.783 115.496 186.392 113.886C187.001 112.261 187.829 110.886 188.876 109.761C189.923 108.636 191.111 107.785 192.439 107.207C193.767 106.628 195.142 106.339 196.564 106.339C198.376 106.339 199.939 106.652 201.251 107.277C202.579 107.902 203.665 108.777 204.509 109.902C205.353 111.011 205.978 112.324 206.384 113.839C206.79 115.339 206.993 116.98 206.993 118.761V120.707H188.056V117.167H202.658V116.839C202.595 115.714 202.361 114.621 201.954 113.558C201.564 112.496 200.939 111.621 200.079 110.933C199.22 110.246 198.048 109.902 196.564 109.902C195.579 109.902 194.673 110.113 193.845 110.535C193.017 110.941 192.306 111.55 191.712 112.363C191.118 113.175 190.658 114.167 190.329 115.339C190.001 116.511 189.837 117.863 189.837 119.394V120.378C189.837 121.582 190.001 122.714 190.329 123.777C190.673 124.824 191.165 125.746 191.806 126.542C192.462 127.339 193.251 127.964 194.173 128.417C195.111 128.871 196.173 129.097 197.361 129.097C198.892 129.097 200.189 128.785 201.251 128.16C202.314 127.535 203.243 126.699 204.04 125.652L206.665 127.738C206.118 128.566 205.423 129.355 204.579 130.105C203.736 130.855 202.697 131.464 201.462 131.933C200.243 132.402 198.798 132.636 197.126 132.636ZM214.332 98.0425L214.027 122.535H210.113L209.785 98.0425H214.332ZM209.645 129.988C209.645 129.285 209.856 128.691 210.277 128.207C210.715 127.722 211.356 127.48 212.199 127.48C213.027 127.48 213.66 127.722 214.098 128.207C214.551 128.691 214.777 129.285 214.777 129.988C214.777 130.66 214.551 131.238 214.098 131.722C213.66 132.207 213.027 132.449 212.199 132.449C211.356 132.449 210.715 132.207 210.277 131.722C209.856 131.238 209.645 130.66 209.645 129.988Z" fill="white"/>
</svg>
